<svg width="800" height="100" viewBox="0 0 800 100" xmlns="http://www.w3.org/2000/svg">
  <path d="M0,50 Q20,30 40,50 T80,50 T120,50 T160,50 T200,50 T240,50 T280,50 T320,50 T360,50 T400,50 T440,50 T480,50 T520,50 T560,50 T600,50 T640,50 T680,50 T720,50 T760,50 T800,50" 
        stroke="currentColor" stroke-width="2" fill="none" />
  <path d="M0,50 Q30,10 60,50 T120,50 T180,50 T240,50 T300,50 T360,50 T420,50 T480,50 T540,50 T600,50 T660,50 T720,50 T780,50" 
        stroke="currentColor" stroke-width="1.5" fill="none" stroke-opacity="0.7" />
  <path d="M0,50 Q40,20 80,50 T160,50 T240,50 T320,50 T400,50 T480,50 T560,50 T640,50 T720,50 T800,50" 
        stroke="currentColor" stroke-width="1" fill="none" stroke-opacity="0.5" />
</svg> 